<mxfile host="app.diagrams.net" agent="Mozilla/5.0 (Windows NT 10.0; Win64; x64) AppleWebKit/537.36 (KHTML, like Gecko) Chrome/134.0.0.0 Safari/537.36" version="26.0.14" pages="2">
  <diagram name="SESSION " id="CrwRYaP3sH4aQPGUijaf">
    <mxGraphModel dx="1034" dy="412" grid="1" gridSize="10" guides="1" tooltips="1" connect="1" arrows="1" fold="1" page="1" pageScale="1" pageWidth="850" pageHeight="1100" math="0" shadow="0">
      <root>
        <mxCell id="0" />
        <mxCell id="1" parent="0" />
        <mxCell id="-5yHqFgXufm0R1m3CHXe-3" value="&lt;div&gt;&lt;br&gt;&lt;/div&gt;&lt;div&gt;&lt;br&gt;&lt;/div&gt;&lt;div&gt;&lt;br&gt;&lt;/div&gt;&lt;div&gt;&lt;br&gt;&lt;/div&gt;&lt;div&gt;&lt;br&gt;&lt;/div&gt;&lt;div&gt;&lt;br&gt;&lt;/div&gt;&lt;div&gt;BROWSERS, Chrome, FireFox..,&lt;/div&gt;" style="rounded=0;whiteSpace=wrap;html=1;" vertex="1" parent="1">
          <mxGeometry x="80" y="90" width="130" height="140" as="geometry" />
        </mxCell>
        <object label="Client 1" id="-5yHqFgXufm0R1m3CHXe-1">
          <mxCell style="shape=umlActor;verticalLabelPosition=bottom;verticalAlign=top;html=1;outlineConnect=0;" vertex="1" parent="1">
            <mxGeometry x="130" y="100" width="30" height="60" as="geometry" />
          </mxCell>
        </object>
        <mxCell id="-5yHqFgXufm0R1m3CHXe-4" value="&lt;div&gt;&lt;br&gt;&lt;/div&gt;&lt;div&gt;&lt;br&gt;&lt;/div&gt;&lt;div&gt;&lt;br&gt;&lt;/div&gt;&lt;div&gt;&lt;br&gt;&lt;/div&gt;&lt;div&gt;&lt;br&gt;&lt;/div&gt;&lt;div&gt;&lt;br&gt;&lt;/div&gt;&lt;div&gt;BROWSERS, Chrome, FireFox..,&lt;/div&gt;" style="rounded=0;whiteSpace=wrap;html=1;" vertex="1" parent="1">
          <mxGeometry x="80" y="280" width="130" height="140" as="geometry" />
        </mxCell>
        <mxCell id="-5yHqFgXufm0R1m3CHXe-2" value="Client 2" style="shape=umlActor;verticalLabelPosition=bottom;verticalAlign=top;html=1;outlineConnect=0;" vertex="1" parent="1">
          <mxGeometry x="130" y="290" width="30" height="60" as="geometry" />
        </mxCell>
        <mxCell id="-5yHqFgXufm0R1m3CHXe-5" value="" style="sketch=0;aspect=fixed;pointerEvents=1;shadow=0;dashed=0;html=1;strokeColor=none;labelPosition=center;verticalLabelPosition=bottom;verticalAlign=top;align=center;fillColor=#00188D;shape=mxgraph.azure.computer" vertex="1" parent="1">
          <mxGeometry x="220" y="137.5" width="50" height="45" as="geometry" />
        </mxCell>
        <mxCell id="-5yHqFgXufm0R1m3CHXe-6" value="" style="sketch=0;aspect=fixed;pointerEvents=1;shadow=0;dashed=0;html=1;strokeColor=none;labelPosition=center;verticalLabelPosition=bottom;verticalAlign=top;align=center;fillColor=#00188D;shape=mxgraph.azure.computer" vertex="1" parent="1">
          <mxGeometry x="230" y="327.5" width="50" height="45" as="geometry" />
        </mxCell>
        <mxCell id="-5yHqFgXufm0R1m3CHXe-9" value="List" style="swimlane;fontStyle=0;childLayout=stackLayout;horizontal=1;startSize=30;horizontalStack=0;resizeParent=1;resizeParentMax=0;resizeLast=0;collapsible=1;marginBottom=0;whiteSpace=wrap;html=1;" vertex="1" parent="1">
          <mxGeometry x="630" y="200" width="140" height="120" as="geometry" />
        </mxCell>
        <mxCell id="-5yHqFgXufm0R1m3CHXe-10" value="Session 1" style="text;strokeColor=none;fillColor=none;align=left;verticalAlign=middle;spacingLeft=4;spacingRight=4;overflow=hidden;points=[[0,0.5],[1,0.5]];portConstraint=eastwest;rotatable=0;whiteSpace=wrap;html=1;" vertex="1" parent="-5yHqFgXufm0R1m3CHXe-9">
          <mxGeometry y="30" width="140" height="30" as="geometry" />
        </mxCell>
        <mxCell id="-5yHqFgXufm0R1m3CHXe-11" value="Session 2" style="text;strokeColor=none;fillColor=none;align=left;verticalAlign=middle;spacingLeft=4;spacingRight=4;overflow=hidden;points=[[0,0.5],[1,0.5]];portConstraint=eastwest;rotatable=0;whiteSpace=wrap;html=1;" vertex="1" parent="-5yHqFgXufm0R1m3CHXe-9">
          <mxGeometry y="60" width="140" height="30" as="geometry" />
        </mxCell>
        <mxCell id="-5yHqFgXufm0R1m3CHXe-12" value="....etc" style="text;strokeColor=none;fillColor=none;align=left;verticalAlign=middle;spacingLeft=4;spacingRight=4;overflow=hidden;points=[[0,0.5],[1,0.5]];portConstraint=eastwest;rotatable=0;whiteSpace=wrap;html=1;" vertex="1" parent="-5yHqFgXufm0R1m3CHXe-9">
          <mxGeometry y="90" width="140" height="30" as="geometry" />
        </mxCell>
        <mxCell id="-5yHqFgXufm0R1m3CHXe-13" value="" style="swimlane;startSize=0;" vertex="1" parent="1">
          <mxGeometry x="390" y="160" width="430" height="200" as="geometry" />
        </mxCell>
        <mxCell id="-5yHqFgXufm0R1m3CHXe-7" value="" style="image;html=1;image=img/lib/clip_art/networking/Cloud_Computer_Private_128x128.png" vertex="1" parent="-5yHqFgXufm0R1m3CHXe-13">
          <mxGeometry x="70" y="40" width="130" height="120" as="geometry" />
        </mxCell>
        <mxCell id="-5yHqFgXufm0R1m3CHXe-8" value="&lt;font style=&quot;font-size: 14px;&quot;&gt;&lt;b&gt;SERVER&amp;nbsp;&lt;/b&gt;&lt;/font&gt;" style="text;html=1;align=center;verticalAlign=middle;resizable=0;points=[];autosize=1;strokeColor=none;fillColor=none;" vertex="1" parent="-5yHqFgXufm0R1m3CHXe-13">
          <mxGeometry x="160" y="10" width="80" height="30" as="geometry" />
        </mxCell>
        <mxCell id="-5yHqFgXufm0R1m3CHXe-14" value="" style="endArrow=classic;html=1;rounded=0;exitX=1;exitY=0.5;exitDx=0;exitDy=0;exitPerimeter=0;entryX=-0.003;entryY=0.197;entryDx=0;entryDy=0;entryPerimeter=0;" edge="1" parent="1" source="-5yHqFgXufm0R1m3CHXe-5" target="-5yHqFgXufm0R1m3CHXe-13">
          <mxGeometry width="50" height="50" relative="1" as="geometry">
            <mxPoint x="460" y="280" as="sourcePoint" />
            <mxPoint x="510" y="230" as="targetPoint" />
          </mxGeometry>
        </mxCell>
        <mxCell id="-5yHqFgXufm0R1m3CHXe-16" value="Session 1" style="edgeLabel;html=1;align=center;verticalAlign=middle;resizable=0;points=[];rotation=15;" vertex="1" connectable="0" parent="-5yHqFgXufm0R1m3CHXe-14">
          <mxGeometry x="-0.6678" y="7" relative="1" as="geometry">
            <mxPoint x="38" as="offset" />
          </mxGeometry>
        </mxCell>
        <mxCell id="-5yHqFgXufm0R1m3CHXe-15" value="" style="endArrow=classic;html=1;rounded=0;exitX=1;exitY=0.5;exitDx=0;exitDy=0;exitPerimeter=0;entryX=-0.011;entryY=0.567;entryDx=0;entryDy=0;entryPerimeter=0;" edge="1" parent="1" source="-5yHqFgXufm0R1m3CHXe-6" target="-5yHqFgXufm0R1m3CHXe-13">
          <mxGeometry width="50" height="50" relative="1" as="geometry">
            <mxPoint x="280" y="170" as="sourcePoint" />
            <mxPoint x="399" y="209" as="targetPoint" />
          </mxGeometry>
        </mxCell>
        <mxCell id="-5yHqFgXufm0R1m3CHXe-17" value="Session 2" style="edgeLabel;html=1;align=center;verticalAlign=middle;resizable=0;points=[];rotation=-45;" vertex="1" connectable="0" parent="1">
          <mxGeometry x="359.9959252198579" y="230.00145773553928" as="geometry">
            <mxPoint x="-83.54876025406283" y="49.78981349375781" as="offset" />
          </mxGeometry>
        </mxCell>
        <mxCell id="-xVLvlI7s6wl6Cu3SzTc-1" value="&lt;font style=&quot;font-size: 14px;&quot;&gt;&lt;b&gt;REQUEST&lt;/b&gt;&lt;/font&gt;" style="text;html=1;align=center;verticalAlign=middle;resizable=0;points=[];autosize=1;strokeColor=none;fillColor=none;" vertex="1" parent="1">
          <mxGeometry x="255" y="230" width="90" height="30" as="geometry" />
        </mxCell>
        <mxCell id="-xVLvlI7s6wl6Cu3SzTc-2" value="" style="endArrow=classic;startArrow=classic;html=1;rounded=0;entryX=0;entryY=0.289;entryDx=0;entryDy=0;entryPerimeter=0;exitX=1.005;exitY=0.578;exitDx=0;exitDy=0;exitPerimeter=0;" edge="1" parent="1" source="-5yHqFgXufm0R1m3CHXe-7" target="-5yHqFgXufm0R1m3CHXe-11">
          <mxGeometry width="50" height="50" relative="1" as="geometry">
            <mxPoint x="460" y="360" as="sourcePoint" />
            <mxPoint x="510" y="310" as="targetPoint" />
          </mxGeometry>
        </mxCell>
      </root>
    </mxGraphModel>
  </diagram>
  <diagram id="Soc5rlm462itzWBxPI8T" name="COOKIES">
    <mxGraphModel dx="1034" dy="412" grid="1" gridSize="10" guides="1" tooltips="1" connect="1" arrows="1" fold="1" page="1" pageScale="1" pageWidth="850" pageHeight="1100" math="0" shadow="0">
      <root>
        <mxCell id="0" />
        <mxCell id="1" parent="0" />
      </root>
    </mxGraphModel>
  </diagram>
</mxfile>
